<svg width="1200" height="900" viewBox="0 0 1200 900" fill="none" xmlns="http://www.w3.org/2000/svg">
  <rect width="1200" height="900" fill="#FFF1F2"/>
  <circle cx="290" cy="192" r="128" fill="#FDA4AF" fill-opacity="0.3"/>
  <path d="M354 326H732V636C732 682.392 694.392 720 648 720H438C391.608 720 354 682.392 354 636V326Z" fill="white" stroke="#F9A8D4" stroke-width="10"/>
  <path d="M732 382H792C851.647 382 900 430.353 900 490C900 549.647 851.647 598 792 598H732" stroke="#F9A8D4" stroke-width="28"/>
  <path d="M540 456C560 418 618 414 636 458C648 488 630 520 540 586C450 520 432 488 444 458C462 414 520 418 540 456Z" fill="#E11D48"/>
  <text x="544" y="660" text-anchor="middle" fill="#9F1239" font-size="32" font-family="Arial, Helvetica, sans-serif">Love Print</text>
</svg>
